<?xml version="1.0" encoding="UTF-8" standalone="no"?>
<!DOCTYPE svg PUBLIC "-//W3C//DTD SVG 1.1//EN" "http://www.w3.org/Graphics/SVG/1.1/DTD/svg11.dtd">
<svg width="100%" height="100%" viewBox="0 0 605 605" version="1.1" xmlns="http://www.w3.org/2000/svg" xmlns:xlink="http://www.w3.org/1999/xlink" xml:space="preserve" xmlns:serif="http://www.serif.com/" style="fill-rule:evenodd;clip-rule:evenodd;stroke-linejoin:round;stroke-miterlimit:2;">
    <g transform="matrix(1,0,0,1,-2468.78,0)">
        <g transform="matrix(4.16667,0,0,4.16667,2468.78,0)">
            <rect id="Page-2" serif:id="Page 2" x="0" y="0" width="145.134" height="145.134" style="fill:none;"/>
            <g id="Page-21" serif:id="Page 2">
                <g id="Paper">
                </g>
                <g id="Layer-1" serif:id="Layer 1">
                    <rect x="0" y="0" width="145.133" height="145.134" style="fill:rgb(224,31,22);"/>
                    <g transform="matrix(1,0,0,1,47.3357,114.138)">
                        <path d="M0,-71.521C1.88,-73.572 3.376,-75.067 4.486,-76.007C5.598,-76.947 5.896,-78.043 5.384,-79.297C4.813,-80.493 3.56,-81.775 1.624,-83.142L53.662,-83.142C51.041,-81.034 49.617,-79.325 49.39,-78.015C42.383,-78.641 36.244,-78.797 30.976,-78.485C25.706,-78.171 20.252,-75.452 14.612,-70.325C8.687,-65.027 5.469,-59.842 4.956,-54.773C4.443,-49.702 5.696,-45.088 8.716,-40.93C11.734,-36.771 16.035,-33.21 21.619,-30.249C27.201,-27.286 33.125,-25.264 39.393,-24.182C40.931,-31.644 40.161,-38.708 37.085,-45.374C34.009,-52.039 27.515,-58.503 17.603,-64.771C24.666,-62.72 31.63,-60.597 38.495,-58.404C45.359,-56.211 51.782,-54.26 57.764,-52.551C56.226,-51.868 55.143,-51.099 54.517,-50.244C52.466,-47.51 51.44,-43.863 51.44,-39.307C51.44,-34.749 50.843,-29.85 49.646,-24.609C47.938,-17.203 44.334,-10.724 38.837,-5.17C33.339,0.385 27.827,5.981 22.303,11.621C26.233,5.298 29.694,-0.727 32.685,-6.451C35.676,-12.177 37.797,-17.63 39.051,-22.815C33.695,-22.302 25.862,-22.715 15.552,-24.054C5.24,-25.392 -2.251,-30.619 -6.921,-39.734C-9.429,-44.575 -9.954,-49.93 -8.502,-55.798C-7.049,-61.665 -4.216,-66.907 0,-71.521" style="fill:white;fill-rule:nonzero;"/>
                    </g>
                </g>
            </g>
        </g>
    </g>
</svg>
